<?xml version="1.0" encoding="UTF-8" standalone="no"?>
<!-- Created with Inkscape (http://www.inkscape.org/) -->
<svg xmlns:inkscape="http://www.inkscape.org/namespaces/inkscape" xmlns:rdf="http://www.w3.org/1999/02/22-rdf-syntax-ns#" xmlns="http://www.w3.org/2000/svg" xmlns:xlink="http://www.w3.org/1999/xlink" xmlns:ns1="http://sozi.baierouge.fr" xmlns:cc="http://creativecommons.org/ns#" xmlns:sodipodi="http://sodipodi.sourceforge.net/DTD/sodipodi-0.dtd" xmlns:dc="http://purl.org/dc/elements/1.1/" id="svg2" xml:space="preserve" viewBox="0 0 35.166 19.944" version="1.1" inkscape:version="0.91 r13725">
  <defs id="defs6">
    <clipPath id="clipPath20">
      <path id="path22" d="m2-0.044675h16v8h-16v-8z" inkscape:connector-curvature="0"/>
    </clipPath>
    <mask id="mask24">
      <g id="g26">
        <g id="g28" clip-path="url(#clipPath20)">
          <path id="path30" style="fill:#000000;fill-opacity:.71880" d="m2-0.044675h16v8h-16v-8z" inkscape:connector-curvature="0"/>
        </g>
      </g>
    </mask>
    <clipPath id="clipPath36">
      <path id="path38" d="m2-0.044675h16v8h-16v-8z" inkscape:connector-curvature="0"/>
    </clipPath>
    <clipPath id="clipPath40">
      <path id="path42" d="m2 0h16v8h-16v-8z" inkscape:connector-curvature="0"/>
    </clipPath>
    <linearGradient id="linearGradient48" y2="-32.384" gradientUnits="userSpaceOnUse" x2="-6.7765" gradientTransform="matrix(.60112 -.0019730 .0019236 .61656 18.197 23.894)" y1="-32.384" x1="-22.477">
      <stop id="stop50" style="stop-color:#ffffff" offset="0"/>
      <stop id="stop52" style="stop-color:#000000" offset="1"/>
    </linearGradient>
    <clipPath id="clipPath80">
      <path id="path82" d="m17-0.044675h11v9h-11v-9z" inkscape:connector-curvature="0"/>
    </clipPath>
    <mask id="mask84">
      <g id="g86">
        <g id="g88" clip-path="url(#clipPath80)">
          <path id="path90" style="fill:#000000;fill-opacity:.16020" d="m17-0.044675h11v9h-11v-9z" inkscape:connector-curvature="0"/>
        </g>
      </g>
    </mask>
    <clipPath id="clipPath96">
      <path id="path98" d="m17-0.044675h11v9h-11v-9z" inkscape:connector-curvature="0"/>
    </clipPath>
    <clipPath id="clipPath100">
      <path id="path102" d="m17 0h11v9h-11v-9z" inkscape:connector-curvature="0"/>
    </clipPath>
    <clipPath id="clipPath124">
      <path id="path126" d="m0-0.044675h9v9h-9v-9z" inkscape:connector-curvature="0"/>
    </clipPath>
    <mask id="mask128">
      <g id="g130">
        <g id="g132" clip-path="url(#clipPath124)">
          <path id="path134" style="fill:#000000;fill-opacity:.32030" d="m0-0.044675h9v9h-9v-9z" inkscape:connector-curvature="0"/>
        </g>
      </g>
    </mask>
    <clipPath id="clipPath140">
      <path id="path142" d="m0-0.044675h9v9h-9v-9z" inkscape:connector-curvature="0"/>
    </clipPath>
    <clipPath id="clipPath144">
      <path id="path146" d="m0 0h9v9h-9v-9z" inkscape:connector-curvature="0"/>
    </clipPath>
    <linearGradient id="linearGradient174" y2="8.5996" gradientUnits="userSpaceOnUse" x2="46.049" gradientTransform="matrix(.60112 0 0 -.61656 .00032080 15.351)" y1="8.5996" x1=".79930">
      <stop id="stop176" style="stop-color:#7d7d7d" offset="0"/>
      <stop id="stop178" style="stop-color:#d4d4d4" offset="1"/>
    </linearGradient>
    <clipPath id="clipPath188">
      <path id="path190" d="m1 6.9553h26v7h-26v-7z" inkscape:connector-curvature="0"/>
    </clipPath>
    <mask id="mask192">
      <g id="g194">
        <g id="g196" clip-path="url(#clipPath188)">
          <path id="path198" style="fill:#000000;fill-opacity:.28910" d="m1 6.9553h26v7h-26v-7z" inkscape:connector-curvature="0"/>
        </g>
      </g>
    </mask>
    <clipPath id="clipPath204">
      <path id="path206" d="m1 6.9553h26v7h-26v-7z" inkscape:connector-curvature="0"/>
    </clipPath>
    <clipPath id="clipPath208">
      <path id="path210" d="m1 7h26v7h-26v-7z" inkscape:connector-curvature="0"/>
    </clipPath>
    <clipPath id="clipPath244">
      <path id="path246" d="m3 1.9553h22v14h-22v-14z" inkscape:connector-curvature="0"/>
    </clipPath>
    <mask id="mask248">
      <g id="g250">
        <g id="g252" clip-path="url(#clipPath244)">
          <path id="path254" style="fill:#000000;fill-opacity:.60160" d="m3 1.9553h22v14h-22v-14z" inkscape:connector-curvature="0"/>
        </g>
      </g>
    </mask>
    <clipPath id="clipPath260">
      <path id="path262" d="m3 1.9553h22v14h-22v-14z" inkscape:connector-curvature="0"/>
    </clipPath>
    <clipPath id="clipPath264">
      <path id="path266" d="m3 2h22v14h-22v-14z" inkscape:connector-curvature="0"/>
    </clipPath>
  </defs>
  <g id="g10" transform="matrix(1.25 0 0 -1.25 0 19.944)">
    <g id="g12">
      <path id="path14" style="fill-rule:evenodd;fill:#d9d9d9" d="m27.68 8.783 0.121 0.032c-0.781-2.547-2.434-4.633-4.957-6.258-2.586-1.664-5.532-2.496-8.84-2.496-3.324 0-6.281 0.844-8.863 2.527-2.567 1.664-4.211 3.781-4.93 6.352l0.211-0.063c0.781-0.617 2.433-1.129 4.957-1.543 2.547-0.386 5.461-0.582 8.746-0.582 3.187 0 6.031 0.196 8.539 0.582 2.481 0.371 4.156 0.856 5.016 1.449z" inkscape:connector-curvature="0"/>
      <g id="g16">
        <g id="g32" mask="url(#mask24)">
          <g id="g54">
            <g id="g56" clip-path="url(#clipPath36)">
              <g id="g58" transform="translate(0 -.044675)">
                <g id="g62">
                  <g id="g64" clip-path="url(#clipPath40)">
                    <g id="g66">
                      <g id="g68">
                        <g id="g70">
                          <g id="g72">
                            <path id="path74" style="fill-rule:evenodd;fill:url(#linearGradient48)" d="m17.129 6.797-1.926-6.692-1.41-0.062c-0.563 0-1.113 0.031-1.656 0.094-0.66 0.105-1.41 0.308-2.254 0.617-0.86 0.328-1.582 0.687-2.164 1.078-1.844 1.234-3.266 2.609-4.266 4.133-0.5 0.758-0.812 1.398-0.933 1.91l1.593-0.34c2.746-0.535 6.012-0.801 9.797-0.801l3.219 0.063z" inkscape:connector-curvature="0"/>
                          </g>
                        </g>
                      </g>
                    </g>
                  </g>
                </g>
              </g>
            </g>
          </g>
        </g>
      </g>
      <g id="g76">
        <g id="g92" mask="url(#mask84)">
          <g id="g104">
            <g id="g106" clip-path="url(#clipPath96)">
              <g id="g108" transform="translate(0 -.044675)">
                <g id="g112">
                  <g id="g114" clip-path="url(#clipPath100)">
                    <g id="g116">
                      <path id="path118" style="fill-rule:evenodd;fill:#595959" d="m23.422 7.551c1.805 0.246 3.215 0.554 4.238 0.926-0.18-0.579-0.461-1.184-0.844-1.821-0.761-1.211-1.921-2.433-3.484-3.668-1.203-0.926-2.734-1.707-4.598-2.343l-1.414-0.215c2.407 0.882 4.106 2.168 5.11 3.851 0.461 0.742 0.75 1.442 0.871 2.098 0.082 0.348 0.121 0.738 0.121 1.172z" inkscape:connector-curvature="0"/>
                    </g>
                  </g>
                </g>
              </g>
            </g>
          </g>
        </g>
      </g>
      <g id="g120">
        <g id="g136" mask="url(#mask128)">
          <g id="g148">
            <g id="g150" clip-path="url(#clipPath140)">
              <g id="g152" transform="translate(0 -.044675)">
                <g id="g156">
                  <g id="g158" clip-path="url(#clipPath144)">
                    <g id="g160">
                      <path id="path162" style="fill-rule:evenodd;fill:#595959" d="m8.184 0.738c-1.922 0.739-3.555 1.785-4.899 3.145-1.363 1.355-2.285 2.887-2.765 4.594l0.21-0.063 0.45-0.277c0.32-0.989 0.843-1.992 1.562-3.024 1.406-1.992 3.219-3.449 5.442-4.375z" inkscape:connector-curvature="0"/>
                    </g>
                  </g>
                </g>
              </g>
            </g>
          </g>
        </g>
      </g>
      <g id="g164">
        <g id="g166">
          <g id="g172">
            <path id="path180" style="fill-rule:evenodd;fill:url(#linearGradient174)" d="m23.684 13.748c2.664-1.027 3.996-2.261 3.996-3.699 0-1.461-1.332-2.691-3.996-3.699-2.645-1.027-5.852-1.543-9.618-1.543-3.746 0-6.953 0.516-9.617 1.543-2.644 1.008-3.969 2.238-3.969 3.699 0 1.438 1.325 2.672 3.969 3.699 2.664 1.028 5.871 1.539 9.617 1.539s6.954-0.511 9.618-1.539z" inkscape:connector-curvature="0"/>
          </g>
        </g>
      </g>
      <path id="path182" style="fill-rule:evenodd;fill:#f5f5f5" d="m28.07 10.42h-0.871c-0.179 1.274-1.531 2.352-4.054 3.235-2.508 0.882-5.512 1.328-9.02 1.328-3.484 0-6.48-0.442-8.984-1.328-2.528-0.883-3.879-1.961-4.059-3.235h-1.023c0.32 1.395 1.816 2.567 4.48 3.512 2.703 0.945 5.883 1.418 9.527 1.418 3.668 0 6.844-0.473 9.528-1.418 2.664-0.945 4.16-2.117 4.476-3.512z" inkscape:connector-curvature="0"/>
      <g id="g184">
        <g id="g200" mask="url(#mask192)">
          <g id="g212">
            <g id="g214" clip-path="url(#clipPath204)">
              <g id="g216" transform="translate(0 -.044675)">
                <g id="g220">
                  <g id="g222" clip-path="url(#clipPath208)">
                    <g id="g224">
                      <path id="path226" style="fill-rule:evenodd;fill:#000000" d="m26.188 10.035c0.32-0.39 0.488-0.769 0.507-1.14l-0.148 0.183c-0.524 0.926-1.422 1.563-2.707 1.914-0.34 0.102-0.91 0.215-1.711 0.336-0.863 0.125-1.613 0.27-2.254 0.434-0.723 0.183-1.574 0.258-2.555 0.215-1.125-0.082-2.023-0.122-2.707-0.122-2.164 0-3.664-0.031-4.508-0.093-0.601-0.02-1.441-0.297-2.523-0.832-0.984-0.496-1.625-0.895-1.926-1.203-0.14 0.062-0.308 0.082-0.508 0.062-0.382-0.082-0.703-0.402-0.964-0.957-0.059-0.121-0.282-0.34-0.661-0.648-0.359-0.309-0.562-0.555-0.601-0.739-0.66 0.391-1.102 0.731-1.32 1.016-0.082 0.289 0.027 0.648 0.328 1.082 0.261 0.391 0.601 0.719 1.023 0.984 0.281 0.188 0.883 0.422 1.805 0.711 0.918 0.309 1.551 0.563 1.89 0.77 1.102 0.699 2.457 1.078 4.059 1.14 0.379 0.02 1.332 0.051 2.855 0.094 1.282 0.039 2.286 0.09 3.004 0.153 1.286 0.101 2.938-0.204 4.961-0.926 1.743-0.637 2.965-1.149 3.668-1.539 0.379-0.207 0.711-0.504 0.993-0.895z" inkscape:connector-curvature="0"/>
                    </g>
                  </g>
                </g>
              </g>
            </g>
          </g>
        </g>
      </g>
      <path id="path228" style="fill-rule:evenodd;fill:#f5f5f5" d="m27.203 10.451h0.871c0.039-0.125 0.059-0.289 0.059-0.496 0-1.5-1.371-2.773-4.117-3.82-2.746-1.051-6.063-1.574-9.95-1.574-3.886 0-7.203 0.523-9.949 1.574-2.746 1.047-4.117 2.32-4.117 3.82l0.059 0.493h1.023v-0.278c0-1.336 1.273-2.465 3.816-3.39 2.543-0.946 5.622-1.418 9.227-1.418 3.629 0 6.715 0.472 9.258 1.418 2.547 0.925 3.816 2.054 3.816 3.39v0.281h0.004z" inkscape:connector-curvature="0"/>
      <path id="path230" style="fill-rule:evenodd;fill:#f8f4b7" d="m16.426 15.705c0.781 0.321 1.617 0.25 2.508-0.203l0.035-0.859c0.781-0.102 1.574-0.278 2.379-0.531 0.867-0.27 1.402-0.532 1.597-0.786-0.043-0.148-0.066-0.316-0.066-0.503 0.086 0 0.219-0.059 0.391-0.176 0.152-0.102 0.316-0.129 0.488-0.078 0 0.117 0.031 0.312 0.097 0.582 0.067 0.254 0.086 0.437 0.067 0.558 0.086 0.016 0.215 0.016 0.39 0 0.196-0.019 0.262-0.062 0.196-0.129 0.086 0.035 0.281-0.175 0.586-0.632 0.324-0.454 0.543-0.672 0.652-0.657 0.758-0.89 1.192-1.457 1.301-1.691 0.371-0.676 0.316-1.281-0.16-1.82-0.086 0-0.176 0.062-0.262 0.179-0.109 0.133-0.207 0.211-0.293 0.227-0.172-0.457-0.336-0.758-0.488-0.91-0.196 0.05-0.586 0.082-1.176 0.101-0.496 0-0.898 0.067-1.203 0.203 0.195-0.828 0.183-1.476-0.031-1.949-0.305-0.652-0.957-0.773-1.957-0.351-0.415-0.672-1.25-1.153-2.512-1.442-1.301-0.285-2.27-0.117-2.899 0.508-0.066-0.168-0.121-0.387-0.164-0.656-0.086 0.015-0.226 0.09-0.422 0.226-0.195 0.117-0.335 0.184-0.425 0.203-0.367-0.035-0.594-0.043-0.684-0.027-0.062 0-0.258 0.117-0.586 0.356-1.086-0.071-2.148 0.148-3.191 0.656-0.586-0.625-1.328-0.758-2.219-0.406-1 0.589-1.703 0.945-2.117 1.062-1.305 0.25-2.281 0.461-2.934 0.629-1.172 0.34-1.422 0.801-0.75 1.391-0.609 0.269-0.933 0.445-0.976 0.531-0.024 0.066 0.109 0.32 0.39 0.758-0.109 0.269-0.183 0.445-0.226 0.531-0.043 0.133-0.024 0.328 0.062 0.582-0.453 0.316-0.531 0.664-0.226 1.035 0.152 0.203 0.554 0.504 1.207 0.91 0.781 0.488 1.476 0.344 2.086-0.429-0.196 0.285-0.286 0.488-0.262 0.605 0.195 0.234 0.379 0.496 0.555 0.781 0.367-0.25 0.574-0.41 0.617-0.476-0.281 0.586-0.067 0.957 0.652 1.109 0.586 0.117 1.293 0.059 2.117-0.176-0.304 0.774-0.117 1.239 0.555 1.391 0.672 0.117 1.262-0.18 1.762-0.887 0.738-0.133 1.269-0.25 1.593-0.351 0.61 0.32 1.196 0.402 1.762 0.25 0.543-0.149 0.953-0.504 1.238-1.059-0.132 0.859 0.184 1.465 0.946 1.82z" inkscape:connector-curvature="0"/>
      <path id="path232" style="fill-rule:evenodd;fill:#ede26a" d="m8.523 15.037c0.637 0.149 1.332 0.094 2.079-0.16-0.332-0.84-0.043-1.324 0.871-1.453 0.832-0.129 1.679 0.035 2.535 0.484 0.086-0.105 0.304-0.312 0.664-0.613 0.308-0.258 0.488-0.492 0.543-0.707 0.359 0.235 0.582 0.559 0.664 0.965 0.027 0.367-0.055 0.73-0.25 1.098 0.332 0.062 0.719 0.097 1.164 0.097 0.5-0.883 0.844-1.418 1.039-1.613 0.527-0.516 1.262-0.73 2.203-0.645 1.051-0.878 1.633-1.382 1.746-1.511 0.442-0.496 0.707-1.153 0.789-1.969-0.113-0.02-0.195 0.012-0.25 0.098-0.027-0.02-0.07-0.086-0.125-0.192-0.054-0.129-0.125-0.215-0.207-0.258l-1.789 0.45-0.039 0.804c-0.527 0-0.887 0.024-1.082 0.067-0.414 0.578-1.469 0.804-3.156 0.676-1.914-0.301-3.172-0.493-3.781-0.579-1.11-0.195-1.832-0.3-2.164-0.324-0.442-0.043-1.176 0.012-2.2 0.16-1.082 0.043-1.843 0.086-2.285 0.129-0.832 0.086-1.097 0.301-0.793 0.645l-0.953-0.387c-0.555 0.496-0.805 1.141-0.75 1.934 0.473 0.043 1.594 0.086 3.367 0.129 0 0.238 0.043 0.41 0.125 0.515 1.496-0.172 2.285-0.75 2.367-1.738 0.833-0.063 1.454-0.063 1.872 0 0.609 0.129 1.007 0.418 1.203 0.871-1.11 0.578-1.871 1.008-2.285 1.285-0.637 0.453-1.008 1.031-1.122 1.742z" inkscape:connector-curvature="0"/>
      <path id="path234" style="fill-rule:evenodd;fill:#ede26a" d="m19.598 9.963-0.02 0.016 0.043-0.016c0.074-0.004 0.156-0.008 0.25-0.019 1.301-0.149 1.688-0.59 1.16-1.321-0.234-0.406-0.886-0.879-1.949-1.414-2.578-1.269-4.574-1.742-5.984-1.418 0 0.344 0.027 0.614 0.082 0.805 0.695 0.043 1.48 0.644 2.367 1.805 0.723 0.964 1.719 1.16 2.992 0.578-0.437 0.738-0.082 1.066 1.059 0.984z" inkscape:connector-curvature="0"/>
      <path id="path236" style="fill-rule:evenodd;fill:#d1b92f" d="m22.355 11.561 0.165-0.406 0.488 0.23c0.129-0.152 0.383-0.328 0.75-0.531 0.219-0.153 0.414-0.356 0.586-0.606l0.781 0.352c0.371-0.152 0.75-0.406 1.141-0.758 0.394-0.371 0.601-0.691 0.621-0.961-0.543-0.402-0.965-0.699-1.274-0.883-0.301-0.168-0.738-0.453-1.301-0.859 0.11 0.101-0.25 0.016-1.074-0.25-0.804-0.289-1.242-0.473-1.304-0.559-0.286 0.336-0.457 0.618-0.524 0.836-0.519 0.27-0.976 0.461-1.367 0.582 0.129-0.437 0.176-0.777 0.129-1.011-0.043-0.809-0.641-1.317-1.793-1.516-0.215 0.066-2.082 0.102-5.606 0.102-3.039-0.02-4.757 0.3-5.148 0.957-0.762-0.067-1.25-0.09-1.465-0.075-0.328 0.016-0.543 0.203-0.652 0.555-0.238 0.016-0.524 0.094-0.848 0.227-0.371 0.136-0.64 0.211-0.816 0.226 0 0.051-0.141 0.145-0.422 0.281-0.285 0.149-0.445 0.25-0.488 0.301-0.372 0.086-0.664 0.297-0.883 0.633-0.258 0.402-0.465 0.648-0.617 0.73l1.695-0.023c-0.043 0.117-0.067 0.211-0.067 0.277-0.066 0.102-0.066 0.211 0 0.328 0.282 0.071 0.434 0.102 0.458 0.102 0.042 0.035 0.097 0.137 0.16 0.305 0.371-0.051 0.968-0.059 1.793-0.028-0.063 0.102-0.118 0.348-0.161 0.735-0.042 0.355-0.132 0.605-0.261 0.758l0.847-0.204c0.043 0.067 0.008 0.118-0.097 0.153 0.332-0.102 0.875-0.168 1.629-0.203l0.457 0.734c1.086-0.137 1.933-0.129 2.539 0.023 0.742 0.219 0.957 0.657 0.652 1.317 0.61-0.02 1.067-0.238 1.371-0.656 0.196-0.239 0.41-0.618 0.653-1.141 0.152 0.102 0.421 0.211 0.812 0.328 0.434 0.121 0.684 0.203 0.75 0.254l-0.293-0.582c0.086-0.016 0.293-0.023 0.621-0.023 0.238 0 0.41-0.036 0.52-0.102-0.348-0.539-0.598-0.859-0.75-0.961-0.262 0.117-0.5 0.176-0.719 0.176l-0.195-0.352c-1.149 0.203-2.258 0.16-3.321-0.125l-0.035-0.582c0.719 0.082 1.324 0.067 1.824-0.051 0.653-0.183 1.043-0.488 1.176-0.91-0.328 0.219-0.621 0.348-0.883 0.379-0.238-0.25-0.433-0.461-0.586-0.629-0.062-0.035-0.476-0.078-1.238-0.129l0.164-0.429c-0.109-0.082-0.183-0.16-0.226-0.227 0.367-0.035 0.597-0.109 0.683-0.226 0.172-0.235 0.282-0.371 0.324-0.403l-0.488-0.051c-0.086-0.406-0.109-0.597-0.066-0.582 0.133-0.085 0.402-0.109 0.816-0.078 0.219-0.386 0.512-0.672 0.879-0.855 0.219 0.301 0.371 0.562 0.457 0.781 0.281 0 0.738 0.035 1.371 0.102 0.543 0.066 0.996 0.082 1.367 0.05-0.023 0.118-0.031 0.329-0.031 0.633 0 0.301-0.035 0.504-0.097 0.606 0.062 0.035 0.152 0 0.257-0.102 0.11-0.082 0.188-0.117 0.231-0.101-0.024 0.32 0.043 0.515 0.195 0.582 0.063-0.036 0.336-0.125 0.813-0.278 0.414-0.117 0.695-0.238 0.847-0.355 0.457 0.355 0.981 0.488 1.567 0.406 0.062-0.016 0.129-0.035 0.195-0.051-0.066 0.387-0.184 0.86-0.359 1.414-0.325 1.012-0.379 1.684-0.161 2.024 0.301 0.519 1.247 0.644 2.832 0.375z" inkscape:connector-curvature="0"/>
      <path id="path238" style="fill-rule:evenodd;fill:#ede26a" d="m9.148 10.205c-0.238-0.336-0.347-0.679-0.332-1.031 0.028-1.141 0-1.836-0.086-2.094-0.886 0.387-1.535 0.688-1.953 0.903-0.691 0.363-0.98 0.804-0.871 1.32 0.137-0.023 0.43-0.023 0.871 0 0.418 0.02 0.707 0.008 0.875-0.035 0.028 0.41 0.192 0.668 0.5 0.773 0.047 0.039 0.379 0.094 0.996 0.164zm-0.125 0.645c0.219 0.172 0.539 0.234 0.954 0.191-0.344-0.258-0.614-0.519-0.809-0.789l-0.77 0.047c0.305 0.281 0.512 0.461 0.625 0.551z" inkscape:connector-curvature="0"/>
      <g id="g240">
        <g id="g256" mask="url(#mask248)">
          <g id="g268">
            <g id="g270" clip-path="url(#clipPath260)">
              <g id="g272" transform="translate(0 -.044675)">
                <g id="g276">
                  <g id="g278" clip-path="url(#clipPath264)">
                    <g id="g280">
                      <path id="path282" style="fill-rule:evenodd;fill:#ad4b01" d="m21.723 12.883c0.75-0.258 1.136-0.688 1.164-1.289 0.777-0.129 1.425-0.43 1.953-0.903l-0.25-0.449c-0.192 0.082-0.485 0.149-0.871 0.192-0.473 0.066-0.778 0.117-0.914 0.16 0.054-0.235 0.511-0.824 1.371-1.77 0.582-0.773 0.293-1.031-0.871-0.773 0.136 0.578-0.223 1.191-1.082 1.836-0.887 0.621-1.774 0.914-2.661 0.871 0.196-0.215 0.376-0.645 0.543-1.289-0.39 0.062-0.734 0.222-1.039 0.48-0.445 0.387-0.75 0.625-0.914 0.711-0.304-0.387-0.043-1.019 0.789-1.902 0.969-1.008 1.454-1.684 1.454-2.028 0.25-0.066 0.554-0.195 0.914-0.386-0.469-0.539-1.11-0.774-1.911-0.711 0.137 0.969-0.058 1.773-0.582 2.418-0.386 0.472-1.191 1.051-2.41 1.738-1.023-0.344-1.648-1.086-1.871-2.223-0.25-1.203 0.332-1.816 1.746-1.836 0.028-0.128 0.016-0.324-0.043-0.582l-2.699 0.067c-0.055-0.281 0.043-0.762 0.289-1.449 0.195-0.582 0.141-1.055-0.164-1.418-0.109 0.109-0.391 0.773-0.832 1.996-0.305 0.816-0.996 1.172-2.078 1.062 0.082 0.258 0.141 0.422 0.168 0.485 0.027 0.066 0.191 0.16 0.496 0.289 0.141 0.601-0.027 1.246-0.496 1.933-0.527 0.774-1.192 1.063-1.996 0.871-0.61-0.152-0.914-0.644-0.914-1.48 0-0.688 0.125-1.246 0.375-1.676-1.551-0.152-1.969 0.481-1.246 1.899 0.886 1.699 1.105 2.675 0.664 2.933-0.86 0.492-1.512 0.012-1.953-1.449-0.414-1.332-0.5-2.258-0.25-2.773-1.106 0-1.84 0.238-2.204 0.71 1.137 0.149 1.79 0.547 1.954 1.192 0.027 0.836 0.168 1.492 0.418 1.965 0.082 0.129 0.539 0.578 1.371 1.351 0.277 0.258 0.109 0.711-0.5 1.356-0.028 0.019-0.387 0.105-1.079 0.258-0.417 0.085-0.335 0.32 0.247 0.707 0.277 0.171 0.761 0.269 1.457 0.289 0.273 0 0.8-0.032 1.578-0.094 0.109 0 0.621-0.078 1.535-0.227 0.723-0.129 1.207-0.148 1.457-0.066 0.324 0.094 0.609 0.285 0.852 0.582 0.015 0.016 0.027 0.031 0.039 0.047 0.039 0.051 0.074 0.097 0.105 0.144 0.25 0.41 0.582 0.657 0.996 0.743l-0.683-0.563c0.144 0.086 0.277 0.121 0.394 0.113 0.664-0.043 0.996-0.172 0.996-0.386 0.027-0.411 0.055-0.625 0.082-0.645 0.086-0.109 0.071-0.324-0.039-0.644-0.082-0.215 0.137-0.387 0.664-0.516 0.473-0.129 0.86-0.117 1.164 0.031 0.192 0.086 0.442 0.258 0.746 0.516 0.141 0.086 0.239 0.344 0.293 0.773 0.055 0.321 0.387 0.473 0.996 0.449 0.25 0 0.485-0.136 0.707-0.418 0.278-0.343 0.469-0.546 0.582-0.609 0.387-0.195 1.051-0.398 1.993-0.613z" inkscape:connector-curvature="0"/>
                    </g>
                  </g>
                </g>
              </g>
            </g>
          </g>
        </g>
      </g>
      <path id="path284" style="fill-rule:evenodd;fill:#dcc8bf" d="m12.969 10.721 1.371-0.098c-0.278-0.515-0.914-0.859-1.91-1.031-0.082-0.301-0.028-0.699 0.168-1.191 0.218-0.559 0.332-0.946 0.332-1.161-0.582 0.54-1 1.247-1.25 2.125-0.274 1.032 0.156 1.485 1.289 1.356z" inkscape:connector-curvature="0"/>
      <path id="path286" style="fill-rule:evenodd;fill:#dcc8bf" d="m18.496 12.717v0.16c0.473 0.129 0.942 0.117 1.414-0.031 0.445-0.152 0.805-0.387 1.082-0.711-0.637 0.043-1.316 0.035-2.035-0.031-0.832-0.129-1.469-0.215-1.914-0.258 0 0.687 0.484 0.977 1.453 0.871z" inkscape:connector-curvature="0"/>
      <path id="path288" style="fill-rule:evenodd;fill:#dcc8bf" d="m8.023 12.877c0.059-0.152 0.114-0.398 0.168-0.742-0.195 0.215-0.718 0.656-1.578 1.32 0.555 0.368 1.496 0.336 2.825-0.093 1.332-0.454 2.316-0.532 2.953-0.227 0.738-0.504 0.406-0.707-1-0.613-1.993 0.238-3.118 0.355-3.368 0.355z" inkscape:connector-curvature="0"/>
      <path id="path290" style="fill-rule:evenodd;fill:#7fa511" d="m18.996 9.237c0.25-0.063 0.469-0.184 0.664-0.352-0.387-0.219-0.707-0.336-0.953-0.355-0.277-0.043-0.695-0.02-1.25 0.062 0.086 0.473 0.516 0.871 1.289 1.191l-0.621-0.418c0.523-0.085 0.816-0.128 0.871-0.128z" inkscape:connector-curvature="0"/>
      <path id="path292" style="fill-rule:evenodd;fill:#7fa511" d="m21.531 12.619c0.34-0.175 0.574-0.316 0.707-0.418 0.223-0.171 0.348-0.386 0.375-0.644-0.777 0.043-1.261 0.226-1.457 0.551-0.164 0.273-0.043 0.445 0.375 0.511z" inkscape:connector-curvature="0"/>
      <path id="path294" style="fill-rule:evenodd;fill:#7fa511" d="m10.332 9.51 1.184-0.078c0.14-0.539 0.027-0.891-0.332-1.067-0.36-0.191-0.86-0.16-1.496 0.098 0.027 0.36 0.242 0.707 0.644 1.047z" inkscape:connector-curvature="0"/>
      <path id="path296" style="fill-rule:evenodd;fill:#7fa511" d="m15.711 10.557v0.226l0.957-0.031c0.305-0.043 0.57-0.152 0.789-0.324-0.637-0.578-1.426-0.738-2.367-0.48 0.027 0.257 0.137 0.429 0.332 0.515 0.168 0.043 0.262 0.074 0.289 0.094z" inkscape:connector-curvature="0"/>
      <path id="path298" style="fill-rule:evenodd;fill:#7fa511" d="m6.676 11.412 1.265-0.082c-0.027-0.172-0.043-0.441-0.043-0.804-0.746 0.062-1.218 0.191-1.41 0.386-0.14 0.157-0.078 0.321 0.188 0.5z" inkscape:connector-curvature="0"/>
      <path id="path300" style="fill-rule:evenodd;fill:#7fa511" d="m16.961 14.584-0.332-0.191c0.137-0.043 0.344-0.164 0.621-0.356 0.305-0.172 0.691-0.238 1.164-0.195-0.141-0.836-0.734-1.062-1.785-0.676-1.027 0.387-0.918 0.86 0.332 1.418z" inkscape:connector-curvature="0"/>
      <path id="path302" style="fill-rule:evenodd;fill:#7fa511" d="m13.801 14.908c0.359-0.214 0.293-0.484-0.207-0.808-0.528-0.363-0.86-0.375-0.996-0.031-0.129 0.3-0.039 0.589 0.269 0.871 0.309 0.152 0.621 0.14 0.934-0.032zm-0.934 0.032c-0.027-0.012-0.047-0.024-0.062-0.032l0.125 0.094c-0.028-0.019-0.043-0.039-0.063-0.062z" inkscape:connector-curvature="0"/>
    </g>
  </g>
<metadata><rdf:RDF><cc:Work><dc:format>image/svg+xml</dc:format><dc:type rdf:resource="http://purl.org/dc/dcmitype/StillImage"/><cc:license rdf:resource="http://creativecommons.org/licenses/publicdomain/"/><dc:publisher><cc:Agent rdf:about="http://openclipart.org/"><dc:title>Openclipart</dc:title></cc:Agent></dc:publisher></cc:Work><cc:License rdf:about="http://creativecommons.org/licenses/publicdomain/"><cc:permits rdf:resource="http://creativecommons.org/ns#Reproduction"/><cc:permits rdf:resource="http://creativecommons.org/ns#Distribution"/><cc:permits rdf:resource="http://creativecommons.org/ns#DerivativeWorks"/></cc:License></rdf:RDF></metadata></svg>
